HIERARCHY
ROOT Hips
{
    OFFSET 0.000000 0.000000 0.000000
    CHANNELS 6 Xposition Yposition Zposition Zrotation Xrotation Yrotation
    JOINT Spine
    {
        OFFSET -0.000000 14.517291 0.000000
        CHANNELS 3 Zrotation Xrotation Yrotation
        JOINT Spine1
        {
            OFFSET -0.000000 37.558300 0.000000
            CHANNELS 3 Zrotation Xrotation Yrotation
            JOINT Neck
            {
                OFFSET -0.000000 37.404057 3.400369
                CHANNELS 3 Zrotation Xrotation Yrotation
                JOINT Head
                {
                    OFFSET -0.000000 24.785618 -3.540803
                    CHANNELS 3 Zrotation Xrotation Yrotation
                    End Site
                    {
                        OFFSET -0.000000 35.408028 0.000000
                    }
                }
            }
            JOINT LeftShoulder
            {
                OFFSET 6.992933 33.973492 -0.192664
                CHANNELS 3 Zrotation Xrotation Yrotation
                JOINT LeftArm
                {
                    OFFSET 21.527611 0.000000 0.000000
                    CHANNELS 3 Zrotation Xrotation Yrotation
                    JOINT LeftForeArm
                    {
                        OFFSET 56.353916 0.000000 0.000000
                        CHANNELS 3 Zrotation Xrotation Yrotation
                        JOINT LeftHand
                        {
                            OFFSET 47.774071 0.000000 0.000000
                            CHANNELS 3 Zrotation Xrotation Yrotation
                            End Site
                            {
                                OFFSET 26.556021 0.000000 0.000000
                            }
                        }
                    }
                }
            }
            JOINT RightShoulder
            {
                OFFSET -7.065357 33.973492 -0.192664
                CHANNELS 3 Zrotation Xrotation Yrotation
                JOINT RightArm
                {
                    OFFSET -21.527611 0.000000 0.000000
                    CHANNELS 3 Zrotation Xrotation Yrotation
                    JOINT RightForeArm
                    {
                        OFFSET -56.353916 0.000000 0.000000
                        CHANNELS 3 Zrotation Xrotation Yrotation
                        JOINT RightHand
                        {
                            OFFSET -47.774071 0.000000 0.000000
                            CHANNELS 3 Zrotation Xrotation Yrotation
                            End Site
                            {
                                OFFSET -26.556021 0.000000 0.000000
                            }
                        }
                    }
                }
            }
        }
    }
    JOINT LeftUpLeg
    {
        OFFSET 17.704014 0.000000 0.000000
        CHANNELS 3 Zrotation Xrotation Yrotation
        JOINT LeftLeg
        {
            OFFSET -0.000000 -81.181816 0.000000
            CHANNELS 3 Zrotation Xrotation Yrotation
            JOINT LeftFoot
            {
                OFFSET -0.000000 -62.821102 0.000000
                CHANNELS 3 Zrotation Xrotation Yrotation
                JOINT LeftToeBase
                {
                    OFFSET -0.000000 -11.507608 26.556021
                    CHANNELS 3 Zrotation Xrotation Yrotation
                    End Site
                    {
                        OFFSET -0.000000 0.000000 7.081605
                    }
                }
            }
        }
    }
    JOINT RightUpLeg
    {
        OFFSET -17.704014 0.000000 0.000000
        CHANNELS 3 Zrotation Xrotation Yrotation
        JOINT RightLeg
        {
            OFFSET -0.000000 -81.181816 0.000000
            CHANNELS 3 Zrotation Xrotation Yrotation
            JOINT RightFoot
            {
                OFFSET -0.000000 -62.821102 0.000000
                CHANNELS 3 Zrotation Xrotation Yrotation
                JOINT RightToeBase
                {
                    OFFSET -0.000000 -11.507608 26.556021
                    CHANNELS 3 Zrotation Xrotation Yrotation
                    End Site
                    {
                        OFFSET -0.000000 0.000000 7.081605
                    }
                }
            }
        }
    }
}
MOTION
Frames:    11
Frame Time:    0.008333
-9.634861    157.860382    -93.253647    -1.810142    -5.657845    45.607059    -1.352195    -2.958070    -3.788828    -4.094381    4.891569    -1.075323    3.542955    -8.657406    -14.348604    9.731086    6.020724    -14.892595    12.355034    1.512695    -26.757267    -29.575939    2.871367    -67.431168    9.006669    -36.423298    -97.918259    2.968856    -27.918678    -12.740136    -13.730019    -7.137655    -4.668488    18.434307    -23.721279    58.477230    -7.955978    -1.471660    22.395380    -6.943301    -2.222578    37.044754    21.634447    2.830676    -2.266528    -9.544620    22.585426    -19.256809    -3.422912    -23.836359    41.736332    0.000000    0.000000    0.000000    -11.343169    -13.404244    -19.417994    4.717557    14.349168    -19.006140    6.041461    10.604518    -9.402976    0.000000    0.000000    0.000000    
-9.627789    157.865036    -93.229263    -1.809157    -5.649580    45.571140    -1.312758    -2.980734    -3.715685    -4.079957    4.921054    -1.050768    3.454420    -8.603093    -14.373427    9.718723    5.988502    -14.895176    12.230009    1.714784    -26.523108    -29.314413    3.309763    -66.302673    7.972939    -34.889278    -98.731522    2.287809    -27.134449    -13.251683    -13.849641    -7.132179    -4.666224    18.593893    -23.715126    58.481827    -7.925414    -1.376564    22.464027    -6.995902    -2.149167    37.079960    21.620422    2.876634    -2.265943    -9.531351    22.522797    -19.220396    -3.450176    -23.825226    41.731644    0.000000    0.000000    0.000000    -11.330324    -13.395267    -19.389502    4.714206    14.313290    -19.009317    6.035345    10.601210    -9.390523    0.000000    0.000000    0.000000    
-9.624770    157.869888    -93.213181    -1.820525    -5.632436    45.534542    -1.265943    -3.004658    -3.648942    -4.058338    4.922643    -1.029797    3.334878    -8.506425    -14.389122    9.739505    5.939591    -14.875749    12.082372    1.920178    -26.293926    -29.040550    3.745573    -65.194855    7.253182    -33.347012    -99.386612    1.703124    -26.077890    -13.313734    -13.911540    -7.073713    -4.658103    18.616449    -23.668043    58.487602    -7.988287    -1.367791    22.519306    -6.955879    -2.109990    37.075294    21.605188    2.892119    -2.273684    -9.519400    22.490168    -19.174070    -3.486166    -23.831978    41.728401    0.000000    0.000000    0.000000    -11.320220    -13.404835    -19.357910    4.715071    14.282418    -19.023212    6.041865    10.601478    -9.363036    0.000000    0.000000    0.000000    
-9.626013    157.873932    -93.195099    -1.839841    -5.618213    45.492996    -1.219926    -3.040158    -3.579595    -4.041043    4.944564    -1.007002    3.301064    -8.472393    -14.388093    9.649661    5.938009    -14.873755    11.943513    2.077697    -26.098162    -28.748386    4.254608    -64.051117    6.369925    -31.966696    -100.115074    0.881673    -25.373863    -13.562315    -13.934154    -7.033967    -4.643895    18.600639    -23.618301    58.480484    -8.038601    -1.386391    22.564472    -6.957157    -2.115582    37.068329    21.606831    2.904686    -2.286806    -9.528456    22.454548    -19.136234    -3.491884    -23.826395    41.744003    0.000000    0.000000    0.000000    -11.295376    -13.418678    -19.341797    4.701648    14.245065    -19.019405    6.031362    10.613619    -9.338526    0.000000    0.000000    0.000000    
-9.622548    157.881439    -93.174385    -1.861283    -5.606921    45.458324    -1.161456    -3.080912    -3.513272    -4.046913    4.967936    -0.984192    3.270291    -8.412871    -14.378142    9.605289    5.898982    -14.855263    11.809101    2.236995    -25.915720    -28.422821    4.814220    -62.941120    5.497118    -30.708536    -100.805099    0.165019    -24.839460    -13.810023    -13.951151    -7.019425    -4.629961    18.623690    -23.592365    58.472553    -8.029918    -1.354300    22.615295    -6.980704    -2.089039    37.062805    21.604698    2.918979    -2.305881    -9.525839    22.408113    -19.079525    -3.508374    -23.811029    41.754787    0.000000    0.000000    0.000000    -11.268890    -13.426135    -19.329765    4.693594    14.208081    -18.991207    6.049448    10.623467    -9.361287    0.000000    0.000000    0.000000    
-9.625485    157.887070    -93.163834    -1.887079    -5.587226    45.427505    -1.110532    -3.119233    -3.455403    -4.049258    4.987376    -0.964524    3.272534    -8.365623    -14.359516    9.531991    5.856781    -14.837791    11.682244    2.415910    -25.708710    -28.129061    5.326613    -61.866493    4.508596    -29.377743    -101.596352    -0.217085    -24.420834    -13.765413    -13.966517    -7.033227    -4.609759    18.649912    -23.566828    58.446213    -7.996425    -1.312627    22.677965    -6.999919    -2.054754    37.044640    21.601219    2.910448    -2.324817    -9.522344    22.385128    -19.044296    -3.534445    -23.814398    41.765026    0.000000    0.000000    0.000000    -11.254760    -13.448950    -19.324678    4.695956    14.177098    -18.994822    6.015330    10.639494    -9.321828    0.000000    0.000000    0.000000    
-9.626848    157.892365    -93.151405    -1.913604    -5.575933    45.401058    -1.059394    -3.158255    -3.403777    -4.035067    5.015448    -0.947291    3.288050    -8.328060    -14.335382    9.424118    5.818815    -14.821250    11.542854    2.556772    -25.491693    -27.913216    5.810391    -60.801693    3.453015    -27.925356    -102.396759    -0.235882    -24.037949    -13.522245    -13.993334    -7.017421    -4.612577    18.953217    -23.777723    58.572819    -7.792394    -1.051865    22.761236    -7.095801    -1.865484    37.104633    21.605310    2.912866    -2.342565    -9.523026    22.349506    -19.012747    -3.530650    -23.812561    41.789104    0.000000    0.000000    0.000000    -11.231640    -13.466785    -19.318579    4.687697    14.150787    -18.973156    6.013929    10.650126    -9.320286    0.000000    0.000000    0.000000    
-9.632371    157.898636    -93.144363    -1.941330    -5.563286    45.372124    -1.015236    -3.182806    -3.348773    -3.999588    5.026124    -0.930582    3.223815    -8.286072    -14.346047    9.416806    5.803196    -14.816212    11.348956    2.736707    -25.286928    -27.638519    6.262240    -59.741543    2.371790    -26.494242    -103.207222    -0.104318    -23.773233    -13.237181    -14.047113    -6.976079    -4.628208    19.065542    -23.808641    58.617451    -7.787000    -0.947825    22.809649    -7.142930    -1.776782    37.129662    21.608706    2.905487    -2.333944    -9.514238    22.333708    -19.003996    -3.546081    -23.823805    41.805096    0.000000    0.000000    0.000000    -11.206300    -13.487684    -19.288158    4.685485    14.114045    -18.989300    6.025543    10.677655    -9.321892    0.000000    0.000000    0.000000    
-9.634003    157.903168    -93.134964    -1.963807    -5.545042    45.347492    -0.969482    -3.214006    -3.290819    -3.981488    5.045344    -0.911736    3.153031    -8.227387    -14.350427    9.447296    5.754721    -14.796646    11.167766    2.917760    -25.081844    -27.409569    6.674595    -58.732536    1.280298    -25.018278    -103.995270    0.238268    -23.549122    -12.792886    -14.082323    -6.932101    -4.636561    18.853743    -23.546310    58.488014    -8.047722    -1.211650    22.886507    -6.995188    -1.929720    37.092892    21.602781    2.904242    -2.325419    -9.506944    22.304342    -18.965260    -3.551021    -23.814219    41.797684    0.000000    0.000000    0.000000    -11.194729    -13.508869    -19.263386    4.689970    14.095697    -18.960600    6.043876    10.669233    -9.366983    0.000000    0.000000    0.000000    
-9.635200    157.909088    -93.128525    -1.981651    -5.537160    45.327003    -0.924264    -3.224627    -3.242641    -3.947041    5.054175    -0.897357    3.052446    -8.164878    -14.372082    9.513618    5.712780    -14.785834    10.984772    3.115481    -24.838142    -27.188784    7.086989    -57.808338    0.249174    -23.602800    -104.719162    0.737766    -23.379333    -12.231602    -14.120382    -6.865440    -4.652817    18.885120    -23.542606    58.504723    -8.079037    -1.219808    22.950821    -6.995195    -1.926044    37.082130    21.601162    2.908965    -2.306943    -9.490584    22.281534    -18.935143    -3.559506    -23.804745    41.767673    0.000000    0.000000    0.000000    -11.179501    -13.518811    -19.238035    4.694876    14.069144    -18.949299    6.050478    10.682984    -9.390495    0.000000    0.000000    0.000000    
-9.642688    157.910248    -93.122452    -2.004217    -5.524136    45.307446    -0.879429    -3.239785    -3.189071    -3.928589    5.059161    -0.880532    3.001437    -8.083138    -14.387865    9.551685    5.631074    -14.778592    10.825334    3.287793    -24.626213    -27.022133    7.494381    -56.893646    -0.712407    -22.238247    -105.381943    1.285163    -23.221836    -11.657788    -14.134627    -6.808787    -4.663363    18.941254    -23.594532    58.517136    -8.042793    -1.178594    23.015980    -6.970920    -1.878934    37.075119    21.606823    2.903757    -2.294191    -9.489635    22.255516    -18.912170    -3.564833    -23.794228    41.757881    0.000000    0.000000    0.000000    -11.163589    -13.544538    -19.197762    4.694215    14.060734    -18.937231    6.068399    10.667187    -9.425690    0.000000    0.000000    0.000000    
